<?xml version="1.0" encoding="UTF-8"?>
<svg id="Layer_1" data-name="Layer 1" xmlns="http://www.w3.org/2000/svg" viewBox="0 0 439.37 496.06">
  <defs>
    <style>
      .cls-1 {
        fill: #e6e5e1;
        stroke-width: 0px;
      }
    </style>
  </defs>
  <path class="cls-1" d="M436.39,81.91s-.74-1.78-1.54-4.99c0,0-3.33-17.85-24-14.06,0,0-11.78,3.42-18.13,14.82,0,0-5.88,12.12-16.75,20.26,0,0-8.79,8.31-34.28,14.01,0,0-16.11,4.9-24.31,14.35l-7.49,9.53-11.26,13.87s-.59,0-.65,1.84c0,0,.39.82-2.33,3.04,0,0-3.92,2.06-4.14,4.96,0,0-.16,2.33-.82,3.04l-4.63,6.33s-.95,1.69-2.29,4.86c0,0,.22.8-4.19,2.36l-2,.49s-.09-.13-3.61,1.51c0,0-1.83,1.47-6.73.27,0,0-.1.01-.43-.55,0,0,.19-.11-.94-.32l-2.64.03s-.74-.06-.56-2.97c0,0,1.63-7.8,2.41-11.84,0,0,.21-8.85,1.69-10.51l2.79-5.52s.48.18.95-3.8c0,0-.76.31,5.75-7.49,0,0,5.44-7.02,7.44-10.81,0,0,2.21-4.74,13.44-10.92,0,0,10.34-4.31,15.8-9.59l11.61-11.24s1.62-.88,2.69-10.05v-2.55s.01-.94-.34-2.05c0,0-.71-.49-.76-6.64,0,0,1.16-7.59,2.63-8.93,0,0,.89-.53,2.67-7.62,0,0,3.46-6.24,4-13.37l.46-13.41s-.04-4.95-3.43-7.31l-6.33-5.57-7.57-6.15s-3.83-3.48-9.13,0c-5.3,3.48-11.09,11.54-11.09,11.54,0,0-1.17,3.89-2.29,7.9,0,0-1.92,4.81-1.87,7.35,0,0-.36,5.64-1.2,11.57,0,0-.48,3.71-2.75,6.21,0,0-2.85,5.73-26.82,21.15l-23.61,13.1s-7.46,2.02-21.48,20.2l-3.27,3.71s-.83.24-.48,3.56c0,0,.63.19-4.34,4.49,0,0-.91.6-1.12,4.31,0,0,.1,2.06-6.09,9.42,0,0-1.26,1.57-1.59,7.49,0,0,.62.43-3.83,5.06,0,0-.82-.8-.33,9.36,0,0,.33.3-3.31,3.67,0,0-2.33,2.01-.64,6.68l.92,2.85s.7.74-1.54,3.8c0,0-.56.55-.5,2.21,0,0,.45,4.2.49,7.14,0,0,0,2.09-.13,2.67,0,0-.6.22-.36,3.34,0,0,1.05,3.02.98,4.02l-.02,1.46s.39.82-5.9,7.27l-19.69,25.43s-4.43,4.11-4.6,7.19c0,0,.07,2.61-1.05,3.5l-5.97,10.31s-.95.53-1.19,6.83c0,0,.53.01-3.48,4.38,0,0-1.62.62-2.09,6.92,0,0,.24.06-1.87,4.28,0,0-.58.8-1.16,6.59,0,0-1.47,4.59-2.85,6.55-1.38,1.96-1.69,2.6-2.5,2.96,0,0-.25.29-3.8-1.28,0,0-4.56-2.22-5.65-3.26,0,0-.33-.42-3.12-.58l-2.27.16c-4.01-1.85-4.25-1.63-4.25-1.63-.51,0-1.29-.39-1.29-.39-.98-1.25-1.68-1.07-1.68-1.07-.77.24-3.03-.3-3.03-.3-.56-.06-6.48-2.54-6.48-2.54-1.66-.8-3.06.46-3.06.46-1.59,1.77-1.95,1.75-1.95,1.75-.5.33-1.51-1.87-1.51-1.87-1.84-4.87-3.16-4.57-3.16-4.57-1.36,0-1.85-.36-1.85-.36-.27-.38-2.07-1.07-2.07-1.07-.62.02-8.33-2.58-8.33-2.58-.42-.09-.85-.11-.85-.11l-2.47.03c-1.51,0-2.85.86-2.85.86-1.63.83-3.37-.03-3.37-.03-5.77-2.47-7.41-2.19-7.41-2.19-1.78.06-3.27,1.02-3.27,1.02-2.7,1.86-4.38,2.15-4.38,2.15-5.87-.1-6.88-.89-6.88-.89-1.26-1.02-3.39-.84-3.39-.84-.94.03-1.58.65-1.58.65-.45.25-.7.31-.7.31-1.87.5-1.92.47-1.92.47-1.04-.15-2.29-1.01-2.29-1.01-.49-.39-3.25-.31-3.25-.31-.55.01-.65.18-.65.18-.92,1.13-1.1.92-1.1.92-.98,0-2.64.15-2.64.15-3.53.24-4.19-.36-4.19-.36l-1.2-.86c0-.33-4.04-.18-4.04-.18-.53,0-1.13.56-1.13.56-.59.53-1.34.49-1.34.49-.27.03-1.16-.62-1.16-.62-.95-.39-2.79-.27-2.79-.27-3.89.12-4.19.62-4.19.62-.68.3-5.15.37-5.15.37-5.08.27-5.81.88-5.81.88-2.27.45-4.74,5.21-4.74,5.21-1.23,5.44,0,6.07,0,6.07,2.26,2.91,4.46,7.43,4.46,7.43,4.46,6.89,6.53,8.73,6.53,8.73,4.93,4.46,9.8,6.94,9.8,6.94,5.35,2.67,12.24,8.82,12.24,8.82,8.61,8.55,16.11,7.92,16.11,7.92,6.24-.18,9.49,1.21,9.49,1.21,2.09.63,6.95.35,6.95.35l5.47-.34c4.95-.18,6.48,1.65,6.48,1.65,2.85,2.36,5.17,4.23,5.17,4.23l3.3,1.07c1.37.27,3.72,2.5,5.37,4.24l1.63,5.2,1.89,2.62s.89,1.11.74,1.49c0,0-.4,1.09-.67,2.67,0,0-.49.42,2.96,4.51,0,0,2.14,2.14,2.31,3.92,0,0-.8,3.83,3.83,9.22l3.34,3.74s.69.36,4.34.63c0,0,1.54.22,1.49.74l-.14,1.79s.03.51-1.86,1.62l-3.31,2.38s-.25.01-2.24,2.66l-2.81,3.5s.06.62-4.01.59c0,0-2.3-.19-2.52,4.31l-.13,2.84s-.07,1.5,1.8,6.79c0,0,.36.42.04,7.05,0,0-1.13,1.89-2.87,8.75,0,0-.15,2.23-2.06,4.5l-1.65,2.32s-.8-.12-.5,7.78c0,0,.37.95-2.08,3.8,0,0-.85,1.96,0,4.05l9.57,15.79s7.07,11.82,30.24,23.58c0,0,44.79,24.68,80.11,15.24,0,0,2.61-1.1,4.28-1.99,0,0,1.13-.83,4.22-1.6,0,0,1.43-.36,1.6-.95,0,0,6.36-3.61,14.11-13.79,0,0,4.78-6.56,6.21-13.51,0,0,1.34-9.92-1.96-20.7,0,0-3.86-7.28-4.69-12.39,0,0-.21-5.12-4.22-11.58,0,0-3.16-3.12,2.41-2.23,0,0,7.19,4.1,12.58,2.85l10.01-3.28s.89.48,7.49-9.45h8.94s1.07-.12,2.02-2.14c0,0,1.84-1.49,3.56,0,0,0,1.13.95,2.02,1.07,0,0,11.66-.36,12.07.21,0,0,1.96.83,2.52.65,0,0,1.96.3,2.2-.83,0,0,.3-.53,3.45-.45,0,0,6.52.27,8.35-1.31l9.12-6.78s5.12-5.12,5.48-7.93c0,0,1.47-3.86,2.72-4.75,0,0,1.93-.8,1.66-7.49,0,0-.04-3.07.53-4.32,0,0,0-.62,1.07-.85,0,0,.4-.17.49-1.62.09-1.45.04-4.54-.85-4.52,0,0-.84.45-1.2-1.26,0,0-.73-4.93-1.93-7.07,0,0-.67-1.02-3.34-2.67,0,0-3.03-2.17-3.7-3.28,0,0-1.11-4.01-8.55-7.08,0,0-.5.36-3.09-1.87,0,0-5.84-5.21-6.59-6.01,0,0-1.83-2.5.27-4.59l6.06-6.28s.59-.48.59-1.66c0,0-.42-3.27.77-3.92l.89-.54s.27-.2.25-1.34c0,0-.19-4.69.22-5.49,0,0,.74-1.36,3.1-3.07,0,0,2.12-1.51-1.6-6.68,0,0-1.58-1.34-1.16-1.85,0,0-.42.17,6.39-5.8,0,0,1.78-.98.33-2.76,0,0-2.61-3.3-2.5-4.04,0,0,.18-3.15.2-3.77,0,0,.11-.82-.31-.87,0,0-.18-.18-2.21-.11,0,0-2.35.02-2.41-.62l-.07-2.84s.07-.51,1.29-.95c0,0,.85-.03,1.14-.23l5.97-5.39s.78-.58.49-1.54c0,0-.28-1.2.14-1.65l12.1-11.89s1.02-.86,1.8-4.63c0,0,.89-2.85,1.87-3.21,0,0,.82.42.86-4.53,0,0-.45-.27,3.48-5.84,0,0,11.84-17.99,23.84-29.03,0,0,.36.03.27-1.08,0,0,0-4.77,2.08-15.46,0,0,6.71-10.51,8.61-13.19,0,0,1.49-1.96,1.49-3.21,0,0,9.45-14.44,12.74-17.02l1.43-.71s6.77-12.04,13.37-16.44c0,0,5.38-4.02,6.62-5,0,0,.45-.71,1.2-.53,0,0,.98.85,3.97-2.18,0,0,10.47-8.42,12.37-11.09,0,0,5.26-5.91,9.59-17.55,0,0,1.01-2.67,1.49-9.27,0,0,.06-5.11-.95-7.49Z"/>
</svg>