<?xml version="1.0" encoding="UTF-8"?>
<svg id="Layer_1" data-name="Layer 1" xmlns="http://www.w3.org/2000/svg" viewBox="0 0 240.94 340.16">
  <defs>
    <style>
      .cls-1 {
        fill: #e6e5e1;
        stroke-width: 0px;
      }
    </style>
  </defs>
  <path class="cls-1" d="M177.42,81.46s-8.03-19.34-31.46-24.15c0,0-27.79-5.2-49.01,12.86,0,0-25.71,19.72-29.27,63.68,0,0-6.83,79.75,10.22,110.05,0,0,22.72,61.72,99.52,29.23v-73.54h-63.1v-39.92h106.22v141.92s-64.72,34.99-126.03,12.71c0,0-54.12-15.09-70.16-94.57,0,0-18.53-103.01,24.95-158.61,0,0,25.09-36.24,71.18-41.7,0,0,82.74-13.62,100.06,61l-43.11,1.05Z"/>
</svg>