<?xml version="1.0" encoding="UTF-8"?>
<svg id="Layer_1" data-name="Layer 1" xmlns="http://www.w3.org/2000/svg" viewBox="0 0 340.16 1162.2">
  <defs>
    <style>
      .cls-1 {
        fill: #e6e5e1;
        stroke-width: 0px;
      }
    </style>
  </defs>
  <path class="cls-1" d="M87.11,1147.75s2.5-36.06-31.6-68.61c0,0-40.75-30.77-44.67-50.38,0,0-6.24-20.61,1.96-44.67,0,0,11.41-36.95,46.81-72.12,0,0,18.89-15.62,37.66-36.42,0,0,17.47-15.45,23.88-19.46,0,0,6.86-5.08,21.65-17.2,0,0,13.49-11.32,35.35-25.34,0,0,16.22-11.35,38.32-23.47,0,0,17.94-10.34,32.91-16.04,0,0,11.26-5.05,15.36-8.44,0,0,6.24-4.46,8.47-5.52,0,0,28.37-17.55,36.56-40.19,0,0,8.26-18.36,8.85-23.35,0,0,10.57-47.29-20.08-108.59,0,0-15.39-41.23-51.03-91.13,0,0-39.56-57.21-60.42-76.81,0,0-49.6-54.36-59.11-103.31,0,0-12.95-72.59,13.43-144.24,0,0,28.87-87.56,61.9-140.08,0,0,11.88-16.43,16.25-17.94,0,0,3.21,0,1.43,2.58,0,0-24.5,43.93-34.13,70.49,0,0-60.63,128.49-50.14,202.81,0,0,4.04,19.25,4.51,29.47,0,0-.59,5.26,10.81,32.23,0,0,10.22,19.43,19.37,28.93,0,0,18.06,23.41,22.81,28.87,0,0,5.82,6.65,15.92,18.3,0,0,14.14,17.52,27.68,36.24,0,0,16.75,23.35,18.71,25.31,0,0,19.13,26.97,23.17,37.19,0,0,21.03,39.86,24.71,46.87,0,0,30.71,53.76,26.84,114.8,0,0-.05,49.04-55.83,84.33,0,0-26.67,13.72-37.01,18.36,0,0-31.54,14.44-41.88,23.52,0,0-41.23,27.68-45.62,32.44,0,0-17.58,14.97-30.89,24.36,0,0-27.5,23.7-33.33,30.48,0,0-29.79,27.86-38.7,40.93,0,0-34.72,44.09-26.17,78.13,0,0,4.43,18.52,14.76,26.96,0,0,12.68,11.87,17.58,14.72,0,0,56.32,47.05,43.66,85h-10.72Z"/>
</svg>